#!OML:ASF H:\Dans Jumps\Project 1\Capture day 1\Session 1\subject.ASF
:FULLY-SPECIFIED
:DEGREES
449
root 0.542022 17.6028 11.1924 14.9311 -0.409833 -3.48249
lowerback 6.78784 0.792357 -0.990403
upperback 5.93636 0.987264 1.31282
thorax 2.2849 0.432396 1.86197
lowerneck -15.217 1.15248 0.176726
upperneck 14.0142 1.84215 -1.87184
head 6.8005 0.728042 -0.445817
rclavicle -1.78906e-015 8.94531e-016
rhumerus -22.1473 -8.38949 -83.5761
rradius 30.1057
rwrist 25.222
rhand -24.0383 -27.0515
rfingers 7.12502
rthumb 2.4404 -57.0173
lclavicle -1.78906e-015 8.94531e-016
lhumerus -23.7511 -4.74365 90.5858
lradius 28.0321
lwrist 18.5884
lhand -27.8544 -8.75452
lfingers 7.12502
lthumb -1.24528 21.2216
rfemur -24.7277 -1.69587 22.6335
rtibia 26.5862
rfoot -14.9618 -0.584464
rtoes 9.17298
lfemur -23.1106 7.29638 -17.6648
ltibia 26.2903
lfoot -13.6375 7.93224
ltoes -14.302
450
root 0.541995 17.6026 11.1914 14.8628 -0.440023 -3.48562
lowerback 6.76731 0.788865 -0.984018
upperback 5.92979 0.983002 1.3153
thorax 2.28963 0.430427 1.86135
lowerneck -15.2712 1.17332 0.174184
upperneck 14.281 1.87749 -1.87706
head 6.89651 0.741729 -0.442894
rclavicle -1.11816e-014 -2.88238e-015
rhumerus -22.0087 -8.19368 -83.7073
rradius 30.133
rwrist 25.1641
rhand -24.0057 -27.0803
rfingers 7.12502
rthumb 2.47182 -57.0458
lclavicle -1.11816e-014 -2.88238e-015
lhumerus -23.5716 -4.91493 90.6833
lradius 28.0032
lwrist 18.4874
lhand -27.8533 -8.62365
lfingers 7.12502
lthumb -1.24426 21.3525
rfemur -24.6525 -1.67854 22.632
rtibia 26.5774
rfoot -14.96 -0.581913
rtoes 9.19343
lfemur -23.0355 7.30176 -17.6562
ltibia 26.2925
lfoot -13.6911 7.96067
ltoes -14.7358
451
root 0.541805 17.6024 11.1905 14.7933 -0.47278 -3.49285
lowerback 6.74282 0.786376 -0.976437
upperback 5.92532 0.980104 1.31923
thorax 2.29869 0.429097 1.86158
lowerneck -15.3446 1.19443 0.170551
upperneck 14.5879 1.91396 -1.8795
head 7.00905 0.755614 -0.438582
rclavicle 3.23025e-015 8.94531e-016
rhumerus -21.862 -8.00317 -83.8401
rradius 30.1537
rwrist 25.1147
rhand -23.9713 -27.1025
rfingers 7.12502
rthumb 2.50511 -57.0675
lclavicle 3.23025e-015 8.94531e-016
lhumerus -23.3831 -5.09378 90.7779
lradius 27.966
lwrist 18.3661
lhand -27.8501 -8.48962
lfingers 7.12502
lthumb -1.2411 21.4865
rfemur -24.5737 -1.65826 22.6356
rtibia 26.5649
rfoot -14.9579 -0.580848
rtoes 9.20811
lfemur -22.959 7.30482 -17.6404
ltibia 26.2967
lfoot -13.7332 7.97134
ltoes -15.0435
452
root 0.541683 17.6024 11.1896 14.726 -0.50772 -3.4897
lowerback 6.71108 0.784444 -0.977963
upperback 5.91973 0.977616 1.32072
thorax 2.3105 0.427707 1.86447
lowerneck -15.4181 1.21296 0.162426
upperneck 14.9263 1.94814 -1.87865
head 7.13204 0.7681 -0.432615
rclavicle 2.98177e-015 3.37934e-015
rhumerus -21.712 -7.81737 -83.9728
rradius 30.1669
rwrist 25.0724
rhand -23.9386 -27.1294
rfingers 7.12502
rthumb 2.53664 -57.0941
lclavicle 2.98177e-015 3.37934e-015
lhumerus -23.19 -5.29607 90.8759
lradius 27.9204
lwrist 18.2491
lhand -27.8228 -8.27892
lfingers 7.12502
lthumb -1.21473 21.6974
rfemur -24.4963 -1.6494 22.6288
rtibia 26.55
rfoot -14.957 -0.569039
rtoes 9.22787
lfemur -22.8843 7.30727 -17.6369
ltibia 26.3
lfoot -13.7594 7.96693
ltoes -15.2456
453
root 0.541546 17.6024 11.1889 14.6605 -0.545359 -3.48445
lowerback 6.67156 0.784292 -0.980831
upperback 5.91197 0.977488 1.32173
thorax 2.32425 0.427461 1.86758
lowerneck -15.4883 1.22751 0.147614
upperneck 15.2965 1.97788 -1.8705
head 7.26504 0.778416 -0.423566
rclavicle -7.05686e-015 -5.1684e-015
rhumerus -21.5596 -7.63265 -84.1054
rradius 30.169
rwrist 25.039
rhand -23.9033 -27.1595
rfingers 7.12502
rthumb 2.57079 -57.1238
lclavicle -7.05686e-015 -5.1684e-015
lhumerus -22.9887 -5.52604 90.9777
lradius 27.8542
lwrist 18.1352
lhand -27.7797 -8.06578
lfingers 7.12502
lthumb -1.17312 21.9107
rfemur -24.4201 -1.64518 22.6204
rtibia 26.5336
rfoot -14.9587 -0.549949
rtoes 9.25139
lfemur -22.8104 7.31181 -17.6359
ltibia 26.302
lfoot -13.769 7.94914
ltoes -15.3512
454
root 0.541496 17.6024 11.1882 14.5952 -0.586124 -3.47429
lowerback 6.62328 0.78563 -0.985737
upperback 5.90416 0.97932 1.32059
thorax 2.34273 0.428131 1.86964
lowerneck -15.5502 1.23841 0.128688
upperneck 15.693 2.00333 -1.85745
head 7.40553 0.786635 -0.412656
rclavicle 1.27222e-014 7.95139e-015
rhumerus -21.3957 -7.45618 -84.2387
rradius 30.1486
rwrist 25.0246
rhand -23.8606 -27.1952
rfingers 7.12502
rthumb 2.61198 -57.159
lclavicle 1.27222e-014 7.95139e-015
lhumerus -22.7716 -5.79087 91.0835
lradius 27.7594
lwrist 18.0288
lhand -27.7777 -7.93787
lfingers 7.12502
lthumb -1.17125 22.0387
rfemur -24.3445 -1.64826 22.607
rtibia 26.518
rfoot -14.9632 -0.521276
rtoes 9.26747
lfemur -22.7343 7.32044 -17.642
ltibia 26.2994
lfoot -13.76 7.9225
ltoes -15.3795
455
root 0.541597 17.6025 11.1876 14.5301 -0.629349 -3.46032
lowerback 6.56687 0.788248 -0.990058
upperback 5.89551 0.982952 1.31732
thorax 2.36481 0.429739 1.86921
lowerneck -15.609 1.24654 0.106272
upperneck 16.1234 2.02545 -1.83827
head 7.55701 0.793284 -0.399436
rclavicle -9.44227e-015 -1.0635e-014
rhumerus -21.2219 -7.29324 -84.3718
rradius 30.1068
rwrist 25.0369
rhand -23.8013 -27.2352
rfingers 7.12502
rthumb 2.66922 -57.1982
lclavicle -9.44227e-015 -1.0635e-014
lhumerus -22.5383 -6.09377 91.1938
lradius 27.6319
lwrist 17.9337
lhand -27.8223 -7.91198
lfingers 7.12502
lthumb -1.21432 22.0643
rfemur -24.2691 -1.65973 22.5894
rtibia 26.5038
rfoot -14.9714 -0.480017
rtoes 9.29343
lfemur -22.6552 7.33219 -17.6541
ltibia 26.2929
lfoot -13.7375 7.89041
ltoes -15.3433
456
root 0.541913 17.6025 11.1872 14.4642 -0.675216 -3.44225
lowerback 6.50405 0.792088 -0.993081
upperback 5.88588 0.988353 1.31038
thorax 2.38944 0.432334 1.86427
lowerneck -15.6708 1.25362 0.0835346
upperneck 16.5928 2.04596 -1.81329
head 7.72244 0.799265 -0.384297
rclavicle 3.18055e-015 4.96962e-016
rhumerus -21.0388 -7.14339 -84.5066
rradius 30.0441
rwrist 25.078
rhand -23.7287 -27.2756
rfingers 7.12502
rthumb 2.73936 -57.2377
lclavicle 3.18055e-015 4.96962e-016
lhumerus -22.2868 -6.43309 91.304
lradius 27.4757
lwrist 17.8367
lhand -27.8553 -7.85236
lfingers 7.12502
lthumb -1.24612 22.1238
rfemur -24.1934 -1.67811 22.567
rtibia 26.492
rfoot -14.9819 -0.428867
rtoes 9.31882
lfemur -22.5704 7.34689 -17.6728
ltibia 26.281
lfoot -13.7061 7.85882
ltoes -15.2589
